<svg width="33" height="33" viewBox="0 0 33 33" fill="none" xmlns="http://www.w3.org/2000/svg">
<g id="03" clip-path="url(#clip0_154_3845)">
<g id="Group 56" filter="url(#filter0_di_154_3845)">
<path id="Vector 120" d="M0.0205078 9.82568H32.0195" stroke="white"/>
<path id="Vector 121" d="M0.0205078 6.49341H32.0195" stroke="white"/>
<g id="Subtract">
<mask id="path-3-inside-1_154_3845" fill="white">
<path fill-rule="evenodd" clip-rule="evenodd" d="M4.4043 24.095V9.82568H3.4043V25.0682C3.72659 24.7306 4.06015 24.406 4.4043 24.095ZM8.44434 21.3309C8.10532 21.4996 7.77186 21.6793 7.44434 21.8698V9.82569H8.44434V21.3309ZM12.4815 19.9239C12.1448 19.9948 11.8114 20.0759 11.4815 20.1669V9.82568H12.4815V19.9239ZM16.5213 19.5797C16.3175 19.5722 16.1128 19.5684 15.9073 19.5684C15.7783 19.5684 15.6497 19.5699 15.5213 19.5729V9.82568H16.5213V19.5797ZM20.5588 20.2309C20.229 20.1349 19.8956 20.0488 19.5588 19.9731V9.82568H20.5588V20.2309ZM24.5986 22.0049C24.2712 21.8079 23.9378 21.6216 23.5986 21.4466V9.82568H24.5986V22.0049ZM28.6357 25.3084C28.3139 24.9596 27.9804 24.6239 27.6357 24.3022V9.82569H28.6357V25.3084Z"/>
</mask>
<path d="M4.4043 9.82568H5.4043V8.82568H4.4043V9.82568ZM4.4043 24.095L5.07473 24.837L5.4043 24.5392V24.095H4.4043ZM3.4043 9.82568V8.82568H2.4043V9.82568H3.4043ZM3.4043 25.0682H2.4043V27.5635L4.12755 25.7588L3.4043 25.0682ZM7.44434 21.8698H6.44434V23.6082L7.94707 22.7342L7.44434 21.8698ZM8.44434 21.3309L8.8897 22.2263L9.44434 21.9504V21.3309H8.44434ZM7.44434 9.82569V8.82569H6.44434V9.82569H7.44434ZM8.44434 9.82569H9.44434V8.82569H8.44434V9.82569ZM11.4815 20.1669H10.4815V21.4802L11.7475 21.1308L11.4815 20.1669ZM12.4815 19.9239L12.6874 20.9025L13.4815 20.7355V19.9239H12.4815ZM11.4815 9.82568V8.82568H10.4815V9.82568H11.4815ZM12.4815 9.82568H13.4815V8.82568H12.4815V9.82568ZM16.5213 19.5797L16.4847 20.579L17.5213 20.6169V19.5797H16.5213ZM15.5213 19.5729H14.5213V20.5961L15.5443 20.5726L15.5213 19.5729ZM15.5213 9.82568V8.82568H14.5213V9.82568H15.5213ZM16.5213 9.82568H17.5213V8.82568H16.5213V9.82568ZM19.5588 19.9731H18.5588V20.7731L19.3393 20.9487L19.5588 19.9731ZM20.5588 20.2309L20.2792 21.191L21.5588 21.5635V20.2309H20.5588ZM19.5588 9.82568V8.82568H18.5588V9.82568H19.5588ZM20.5588 9.82568H21.5588V8.82568H20.5588V9.82568ZM23.5986 21.4466H22.5986V22.0559L23.14 22.3353L23.5986 21.4466ZM24.5986 22.0049L24.0829 22.8617L25.5986 23.774V22.0049H24.5986ZM23.5986 9.82568V8.82568H22.5986V9.82568H23.5986ZM24.5986 9.82568H25.5986V8.82568H24.5986V9.82568ZM27.6357 24.3022H26.6357V24.7366L26.9533 25.0331L27.6357 24.3022ZM28.6357 25.3084L27.9007 25.9865L29.6357 27.8672V25.3084H28.6357ZM27.6357 9.82569V8.82569H26.6357V9.82569H27.6357ZM28.6357 9.82569H29.6357V8.82569H28.6357V9.82569ZM3.4043 9.82568V24.095H5.4043V9.82568H3.4043ZM3.4043 10.8257H4.4043V8.82568H3.4043V10.8257ZM4.4043 25.0682V9.82568H2.4043V25.0682H4.4043ZM4.12755 25.7588C4.43301 25.4389 4.74897 25.1314 5.07473 24.837L3.73386 23.3531C3.37134 23.6807 3.02017 24.0224 2.68104 24.3776L4.12755 25.7588ZM7.94707 22.7342C8.25597 22.5546 8.5703 22.3851 8.8897 22.2263L7.99897 20.4356C7.64034 20.614 7.28775 20.804 6.9416 21.0054L7.94707 22.7342ZM8.44434 21.8698V9.82569H6.44434V21.8698H8.44434ZM7.44434 10.8257H8.44434V8.82569H7.44434V10.8257ZM7.44434 9.82569V21.3309H9.44434V9.82569H7.44434ZM11.7475 21.1308C12.0576 21.0453 12.371 20.9691 12.6874 20.9025L12.2757 18.9454C11.9187 19.0205 11.5652 19.1064 11.2155 19.2029L11.7475 21.1308ZM10.4815 9.82568V20.1669H12.4815V9.82568H10.4815ZM12.4815 8.82568H11.4815V10.8257H12.4815V8.82568ZM13.4815 19.9239V9.82568H11.4815V19.9239H13.4815ZM15.9073 20.5684C16.1006 20.5684 16.2931 20.572 16.4847 20.579L16.5579 18.5803C16.3419 18.5724 16.125 18.5684 15.9073 18.5684V20.5684ZM15.5443 20.5726C15.665 20.5698 15.786 20.5684 15.9073 20.5684V18.5684C15.7707 18.5684 15.6343 18.57 15.4984 18.5731L15.5443 20.5726ZM16.5213 19.5729V9.82568H14.5213V19.5729H16.5213ZM15.5213 10.8257H16.5213V8.82568H15.5213V10.8257ZM15.5213 9.82568V19.5797H17.5213V9.82568H15.5213ZM19.3393 20.9487C19.6559 21.0199 19.9693 21.1008 20.2792 21.191L20.8383 19.2707C20.4888 19.169 20.1353 19.0778 19.7782 18.9975L19.3393 20.9487ZM18.5588 9.82568V19.9731H20.5588V9.82568H18.5588ZM20.5588 8.82568H19.5588V10.8257H20.5588V8.82568ZM21.5588 20.2309V9.82568H19.5588V20.2309H21.5588ZM23.14 22.3353C23.4597 22.5002 23.7741 22.6758 24.0829 22.8617L25.1143 21.1481C24.7684 20.9399 24.4159 20.7431 24.0571 20.5579L23.14 22.3353ZM24.5986 21.4466V9.82568H22.5986V21.4466H24.5986ZM23.5986 10.8257H24.5986V8.82568H23.5986V10.8257ZM23.5986 9.82568V22.0049H25.5986V9.82568H23.5986ZM26.9533 25.0331C27.2796 25.3378 27.5957 25.6558 27.9007 25.9865L29.3707 24.6304C29.0322 24.2634 28.6811 23.9101 28.3182 23.5712L26.9533 25.0331ZM26.6357 9.82569V24.3022H28.6357V9.82569H26.6357ZM28.6357 8.82569H27.6357V10.8257H28.6357V8.82569ZM29.6357 25.3084V9.82569H27.6357V25.3084H29.6357Z" fill="white" mask="url(#path-3-inside-1_154_3845)"/>
</g>
<g id="Subtract_2">
<mask id="path-5-inside-2_154_3845" fill="white">
<path fill-rule="evenodd" clip-rule="evenodd" d="M0.50586 27.4246H1.71535C5.03539 22.7461 10.2087 19.7383 16.0202 19.7383C21.8317 19.7383 27.005 22.7461 30.3251 27.4246H31.5345C28.072 22.1781 22.4412 18.7383 16.0202 18.7383C9.5992 18.7383 3.96843 22.1781 0.50586 27.4246Z"/>
</mask>
<path d="M0.505859 27.4246L-0.328755 26.8737L-1.35229 28.4246H0.505859V27.4246ZM1.71535 27.4246V28.4246H2.23191L2.53086 28.0033L1.71535 27.4246ZM30.3251 27.4246L29.5095 28.0033L29.8085 28.4246H30.3251V27.4246ZM31.5345 27.4246V28.4246H33.3927L32.3692 26.8737L31.5345 27.4246ZM0.505859 28.4246H1.71535V26.4246H0.505859V28.4246ZM16.0202 18.7383C9.84761 18.7383 4.38491 21.9348 0.899828 26.8458L2.53086 28.0033C5.68588 23.5574 10.5697 20.7383 16.0202 20.7383V18.7383ZM31.1406 26.8458C27.6555 21.9348 22.1928 18.7383 16.0202 18.7383V20.7383C21.4707 20.7383 26.3545 23.5574 29.5095 28.0033L31.1406 26.8458ZM30.3251 28.4246H31.5345V26.4246H30.3251V28.4246ZM16.0202 19.7383C22.0654 19.7383 27.3994 22.9745 30.6999 27.9754L32.3692 26.8737C28.7446 21.3818 22.817 17.7383 16.0202 17.7383V19.7383ZM1.34047 27.9754C4.64102 22.9745 9.97501 19.7383 16.0202 19.7383V17.7383C9.2234 17.7383 3.29584 21.3818 -0.328755 26.8737L1.34047 27.9754Z" fill="white" mask="url(#path-5-inside-2_154_3845)"/>
</g>
</g>
</g>
<defs>
<filter id="filter0_di_154_3845" x="-1.97949" y="3.99341" width="35.999" height="25.4312" filterUnits="userSpaceOnUse" color-interpolation-filters="sRGB">
<feFlood flood-opacity="0" result="BackgroundImageFix"/>
<feColorMatrix in="SourceAlpha" type="matrix" values="0 0 0 0 0 0 0 0 0 0 0 0 0 0 0 0 0 0 127 0" result="hardAlpha"/>
<feOffset/>
<feGaussianBlur stdDeviation="1"/>
<feComposite in2="hardAlpha" operator="out"/>
<feColorMatrix type="matrix" values="0 0 0 0 0.00392157 0 0 0 0 0.4 0 0 0 0 0.760784 0 0 0 0.5 0"/>
<feBlend mode="normal" in2="BackgroundImageFix" result="effect1_dropShadow_154_3845"/>
<feBlend mode="normal" in="SourceGraphic" in2="effect1_dropShadow_154_3845" result="shape"/>
<feColorMatrix in="SourceAlpha" type="matrix" values="0 0 0 0 0 0 0 0 0 0 0 0 0 0 0 0 0 0 127 0" result="hardAlpha"/>
<feOffset/>
<feGaussianBlur stdDeviation="0.5"/>
<feComposite in2="hardAlpha" operator="arithmetic" k2="-1" k3="1"/>
<feColorMatrix type="matrix" values="0 0 0 0 0.00392157 0 0 0 0 0.4 0 0 0 0 0.760784 0 0 0 0.8 0"/>
<feBlend mode="normal" in2="shape" result="effect2_innerShadow_154_3845"/>
</filter>
<clipPath id="clip0_154_3845">
<rect width="32" height="32" fill="white" transform="translate(0.0195312 0.00927734)"/>
</clipPath>
</defs>
</svg>
